<?xml version="1.0" encoding="UTF-8" standalone="no"?>
<!DOCTYPE svg PUBLIC "-//W3C//DTD SVG 1.1//EN" "http://www.w3.org/Graphics/SVG/1.1/DTD/svg11.dtd">
<svg width="100%" height="100%" viewBox="0 0 1025 500" version="1.1" xmlns="http://www.w3.org/2000/svg" xmlns:xlink="http://www.w3.org/1999/xlink" xml:space="preserve" xmlns:serif="http://www.serif.com/" style="fill-rule:evenodd;clip-rule:evenodd;stroke-linecap:round;stroke-linejoin:round;stroke-miterlimit:1.5;">
    <g id="_3" serif:id="3">
        <g transform="matrix(1,0,0,1,46.7499,85.0396)">
            <path d="M146.509,143.594L178.406,275.062L426.088,275.062" style="fill:none;stroke:rgb(0,84,159);stroke-width:11.69px;"/>
        </g>
        <g transform="matrix(0.639149,0,0,0.639149,39.7221,160.927)">
            <circle cx="284.95" cy="311.624" r="30.577" style="fill:rgb(31,144,244);stroke:white;stroke-width:7.07px;"/>
        </g>
        <g transform="matrix(3.44413,0,0,3.44413,28.4559,75.6748)">
            <text x="59.504px" y="75.613px" style="font-family:'ArialMT', 'Arial', sans-serif;font-size:12px;">feature1</text>
        </g>
        <g transform="matrix(0.639149,0,0,0.639149,112.662,160.927)">
            <circle cx="284.95" cy="311.624" r="30.577" style="fill:rgb(31,144,244);stroke:white;stroke-width:7.07px;"/>
        </g>
        <g transform="matrix(0.639149,0,0,0.639149,181.362,160.927)">
            <circle cx="284.95" cy="311.624" r="30.577" style="fill:rgb(31,144,244);stroke:white;stroke-width:7.07px;"/>
        </g>
    </g>
    <g id="_2" serif:id="2">
        <g transform="matrix(1.1724,0,0,1,-257.651,-46.428)">
            <path d="M219.763,275.062L1094.04,275.062" style="fill:none;stroke:rgb(248,183,46);stroke-width:10.73px;"/>
        </g>
        <g transform="matrix(3.44413,0,0,3.44413,-192.314,-51.3351)">
            <text x="59.504px" y="75.613px" style="font-family:'ArialMT', 'Arial', sans-serif;font-size:12px;">develop</text>
        </g>
        <g transform="matrix(-1,0,0,1,629.298,-46.428)">
            <path d="M436.039,275.062L467.8,143.594" style="fill:none;stroke:rgb(248,183,46);stroke-width:11.69px;"/>
        </g>
        <g transform="matrix(0.639149,0,0,0.639149,9.84969,29.4597)">
            <circle cx="284.95" cy="311.624" r="30.577" style="fill:rgb(31,144,244);stroke:white;stroke-width:7.07px;"/>
        </g>
    </g>
    <g id="_5" serif:id="5">
        <g transform="matrix(1,0,0,1,36.7985,85.0396)">
            <path d="M436.039,275.062L487.343,143.594" style="fill:none;stroke:rgb(0,84,159);stroke-width:11.69px;"/>
        </g>
        <g transform="matrix(0.639149,0,0,0.639149,342.016,29.4597)">
            <circle cx="284.95" cy="311.624" r="30.577" style="fill:rgb(31,144,244);stroke:white;stroke-width:7.07px;"/>
        </g>
        <g transform="matrix(0.639149,0,0,0.639149,290.712,160.927)">
            <circle cx="284.95" cy="311.624" r="30.577" style="fill:rgb(31,144,244);stroke:white;stroke-width:7.07px;"/>
        </g>
    </g>
    <g id="_4" serif:id="4">
        <g transform="matrix(1,0,0,0.923906,146.762,-68.1086)">
            <path d="M230.623,321.182L292.403,559.593L878.238,559.593" style="fill:none;stroke:rgb(73,160,120);stroke-width:12.15px;"/>
        </g>
        <g transform="matrix(0.639149,0,0,0.639149,259.19,249.729)">
            <circle cx="284.95" cy="311.624" r="30.577" style="fill:rgb(31,144,244);stroke:white;stroke-width:7.07px;"/>
        </g>
        <g transform="matrix(3.44413,0,0,3.44413,243.272,157.787)">
            <text x="59.504px" y="75.613px" style="font-family:'ArialMT', 'Arial', sans-serif;font-size:12px;">feature2</text>
        </g>
        <g transform="matrix(0.639149,0,0,0.639149,458.682,249.729)">
            <circle cx="284.95" cy="311.624" r="30.577" style="fill:rgb(31,144,244);stroke:white;stroke-width:7.07px;"/>
        </g>
        <g transform="matrix(0.639149,0,0,0.639149,359.26,249.729)">
            <circle cx="284.95" cy="311.624" r="30.577" style="fill:rgb(31,144,244);stroke:white;stroke-width:7.07px;"/>
        </g>
        <g transform="matrix(0.639149,0,0,0.639149,684.066,249.729)">
            <circle cx="284.95" cy="311.624" r="30.577" style="fill:rgb(31,144,244);stroke:white;stroke-width:7.07px;"/>
        </g>
        <g transform="matrix(0.639149,0,0,0.639149,571.374,249.729)">
            <circle cx="284.95" cy="311.624" r="30.577" style="fill:rgb(31,144,244);stroke:white;stroke-width:7.07px;"/>
        </g>
        <g transform="matrix(0.639149,0,0,0.639149,796.758,249.729)">
            <circle cx="284.95" cy="311.624" r="30.577" style="fill:rgb(31,144,244);stroke:white;stroke-width:7.07px;"/>
        </g>
        <g transform="matrix(0.639149,0,0,0.639149,194.294,29.4597)">
            <circle cx="284.95" cy="311.624" r="30.577" style="fill:rgb(31,144,244);stroke:white;stroke-width:7.07px;"/>
        </g>
    </g>
    <g id="_1" serif:id="1">
        <g transform="matrix(1.1111,0,0,1,-48.7779,-62.889)">
            <path d="M43.901,143.594L966.411,143.594" style="fill:none;stroke:rgb(219,84,97);stroke-width:11.06px;"/>
        </g>
        <g transform="matrix(1,0,0,1,0,-4.3763)">
            <g transform="matrix(0.639149,0,0,0.639149,-20.628,-114.093)">
                <circle cx="284.95" cy="311.624" r="30.577" style="fill:rgb(31,144,244);stroke:white;stroke-width:7.07px;"/>
            </g>
            <g transform="matrix(1.27168,0,0,1.27168,71.5389,-5.60935)">
                <text x="59.504px" y="75.613px" style="font-family:'ArialMT', 'Arial', sans-serif;font-size:12px;fill:white;">v1.0</text>
            </g>
        </g>
        <g transform="matrix(3.44413,0,0,3.44413,-192.314,-199.264)">
            <text x="59.504px" y="75.613px" style="font-family:'ArialMT', 'Arial', sans-serif;font-size:12px;">main</text>
        </g>
    </g>
    <g id="_9" serif:id="9">
        <g transform="matrix(-0.552206,0,0,0.552206,1463.76,76.743)">
            <path d="M846.792,275.062L917.574,143.594" style="fill:none;stroke:rgb(145,46,248);stroke-width:21.16px;"/>
        </g>
        <g transform="matrix(0.552206,0,0,0.552206,489.47,4.14583)">
            <path d="M846.792,275.062L917.574,143.594" style="fill:none;stroke:rgb(145,46,248);stroke-width:21.16px;"/>
        </g>
        <g transform="matrix(1,0,0,1,0,-4.3763)">
            <g transform="matrix(0.639149,0,0,0.639149,814.035,-114.093)">
                <circle cx="284.95" cy="311.624" r="30.577" style="fill:rgb(31,144,244);stroke:white;stroke-width:7.07px;"/>
            </g>
            <g transform="matrix(1.27168,0,0,1.27168,906.068,-5.60935)">
                <text x="60.135px" y="74.132px" style="font-family:'ArialMT', 'Arial', sans-serif;font-size:7.864px;fill:white;">v1.1.1</text>
            </g>
        </g>
        <g transform="matrix(0.639149,0,0,0.639149,814.035,29.4597)">
            <circle cx="284.95" cy="311.624" r="30.577" style="fill:rgb(31,144,244);stroke:white;stroke-width:7.07px;"/>
        </g>
    </g>
    <g id="_8" serif:id="8">
        <g transform="matrix(2.56123,0,0,2.56123,733.331,-62.9183)">
            <text x="59.504px" y="75.613px" style="font-family:'ArialMT', 'Arial', sans-serif;font-size:12px;">hotﬁx</text>
        </g>
        <g transform="matrix(0.0778924,0,0,1,883.347,12.4424)">
            <path d="M43.901,143.594L946.518,143.594" style="fill:none;stroke:rgb(145,46,248);stroke-width:16.48px;"/>
        </g>
        <g transform="matrix(-0.552206,0,0,0.552206,1354.37,4.14583)">
            <path d="M846.792,275.062L917.574,143.594" style="fill:none;stroke:rgb(145,46,248);stroke-width:21.16px;"/>
        </g>
        <g transform="matrix(0.639149,0,0,0.639149,704.641,-43.1375)">
            <circle cx="284.95" cy="311.624" r="30.577" style="fill:rgb(31,144,244);stroke:white;stroke-width:7.07px;"/>
        </g>
        <g transform="matrix(0.639149,0,0,0.639149,774.948,-43.1375)">
            <circle cx="284.95" cy="311.624" r="30.577" style="fill:rgb(31,144,244);stroke:white;stroke-width:7.07px;"/>
        </g>
    </g>
    <g id="_7" serif:id="7">
        <g transform="matrix(-0.552206,0,0,0.552206,1315.28,76.743)">
            <path d="M846.792,275.062L917.574,143.594" style="fill:none;stroke:rgb(52,197,10);stroke-width:21.16px;"/>
        </g>
        <g transform="matrix(-0.552206,0,0,-0.552206,1315.28,243.591)">
            <path d="M846.792,275.062L917.574,143.594" style="fill:none;stroke:rgb(52,197,10);stroke-width:21.16px;"/>
        </g>
        <g transform="matrix(1,0,0,1,0,-4.3763)">
            <g transform="matrix(0.639149,0,0,0.639149,665.555,-114.093)">
                <circle cx="284.95" cy="311.624" r="30.577" style="fill:rgb(31,144,244);stroke:white;stroke-width:7.07px;"/>
            </g>
            <g transform="matrix(1.27168,0,0,1.27168,757.588,-5.60935)">
                <text x="59.504px" y="75.613px" style="font-family:'ArialMT', 'Arial', sans-serif;font-size:12px;fill:white;">v1.1</text>
            </g>
        </g>
        <g transform="matrix(0.639149,0,0,0.639149,665.555,29.4597)">
            <circle cx="284.95" cy="311.624" r="30.577" style="fill:rgb(31,144,244);stroke:white;stroke-width:7.07px;"/>
        </g>
    </g>
    <g id="_6" serif:id="6">
        <g transform="matrix(2.56123,0,0,2.56123,476.254,-62.9183)">
            <text x="59.504px" y="75.613px" style="font-family:'ArialMT', 'Arial', sans-serif;font-size:12px;">releases/v1.1</text>
        </g>
        <g transform="matrix(0.185567,0,0,1,633.218,12.4424)">
            <path d="M43.901,143.594L946.518,143.594" style="fill:none;stroke:rgb(52,197,10);stroke-width:16.25px;"/>
        </g>
        <g transform="matrix(0.552206,0,0,0.552206,134.675,76.743)">
            <path d="M846.792,275.062L917.574,143.594" style="fill:none;stroke:rgb(52,197,10);stroke-width:21.16px;"/>
        </g>
        <g transform="matrix(0.639149,0,0,0.639149,459.239,-43.1375)">
            <circle cx="284.95" cy="311.624" r="30.577" style="fill:rgb(31,144,244);stroke:white;stroke-width:7.07px;"/>
        </g>
        <g transform="matrix(0.639149,0,0,0.639149,515.071,-43.1375)">
            <circle cx="284.95" cy="311.624" r="30.577" style="fill:rgb(31,144,244);stroke:white;stroke-width:7.07px;"/>
        </g>
        <g transform="matrix(0.639149,0,0,0.639149,570.903,-43.1375)">
            <circle cx="284.95" cy="311.624" r="30.577" style="fill:rgb(31,144,244);stroke:white;stroke-width:7.07px;"/>
        </g>
        <g transform="matrix(0.639149,0,0,0.639149,626.735,-43.1375)">
            <circle cx="284.95" cy="311.624" r="30.577" style="fill:rgb(31,144,244);stroke:white;stroke-width:7.07px;"/>
        </g>
        <g transform="matrix(0.639149,0,0,0.639149,420.153,29.4597)">
            <circle cx="284.95" cy="311.624" r="30.577" style="fill:rgb(31,144,244);stroke:white;stroke-width:7.07px;"/>
        </g>
    </g>
</svg>
